
<svg width="68" height="59" class="svg-icon" style="width: 68; height: 59;vertical-align: middle;fill: currentColor;overflow: hidden;" viewBox="0 0 1024 1024" version="1.1" xmlns="http://www.w3.org/2000/svg">
<path d="M452.888671 849.921451l51.028908-253.551665c0-11.719013-3.982189-22.015817-9.841696-25.599787-4.551073-6.143949-13.766996-13.027447-30.15086-13.027447H185.91134l374.951542-393.781607-54.954209 265.270678c0 11.719013 4.551073 22.072705 9.841696 25.542898 5.233734 6.257726 14.392769 13.084335 30.093972 13.084336h242.742866l-335.641648 382.005705z m455.39176-433.831052l-2.616867-4.835515c-4.551073-7.509271-15.07543-17.23719-34.07616-17.23719H592.89106l74.523823-353.675275c0-17.862962-9.727919-31.800624-25.429121-35.896589a33.791718 33.791718 0 0 0-43.860968 9.045258L68.721206 569.461566a35.839701 35.839701 0 0 0-11.775902 25.599786c0 5.518176 1.308434 14.506546 6.542167 19.342061 4.551073 7.509271 15.07543 17.294078 34.019272 17.294078h319.371561L344.231799 976.213732a38.342792 38.342792 0 0 0 0 27.021997c4.551073 8.24882 12.401674 14.506546 23.551803 17.237189 4.551073 2.787532 9.159035 3.470193 15.07543 3.470194 11.093241 0 20.934937-3.413305 32.028178-12.458563l488.842148-556.027367 4.551073-9.045258a59.732836 59.732836 0 0 0 0-30.378413z" fill="#F15A21" />
</svg>