<?xml version="1.0" standalone="no"?>
<!DOCTYPE svg PUBLIC "-//W3C//DTD SVG 20010904//EN"
 "http://www.w3.org/TR/2001/REC-SVG-20010904/DTD/svg10.dtd">
<svg version="1.0" xmlns="http://www.w3.org/2000/svg"
 width="512.000000pt" height="512.000000pt" viewBox="0 0 512.000000 512.000000"
 preserveAspectRatio="xMidYMid meet">

<g transform="translate(0.000000,512.000000) scale(0.100000,-0.100000)"
fill="#F15A21" stroke="none">
<path d="M2277 5054 c-306 -66 -548 -310 -611 -616 -34 -163 -16 -314 58 -489
6 -13 -11 -23 -81 -49 -135 -50 -325 -146 -436 -221 l-101 -67 -45 20 c-211
91 -412 74 -578 -50 l-51 -38 129 -172 c71 -94 129 -174 129 -177 0 -4 -19
-34 -42 -68 -66 -96 -164 -298 -200 -413 l-33 -104 -82 0 c-144 0 -246 -59
-303 -175 l-25 -50 -3 -485 c-4 -532 -1 -561 52 -643 34 -53 110 -109 171
-126 24 -6 138 -11 280 -12 l240 -1 74 -85 c85 -97 212 -212 319 -286 l72 -51
0 -235 c0 -208 3 -241 19 -277 22 -49 93 -112 135 -119 17 -4 133 -5 257 -3
l226 3 40 28 c58 40 92 108 100 201 4 54 10 76 20 76 7 0 57 -8 111 -17 127
-22 534 -23 665 -2 l87 15 0 -70 c1 -109 42 -186 122 -227 33 -17 61 -19 263
-19 181 0 233 3 263 15 47 20 78 50 105 100 20 37 22 57 25 268 l3 227 73 50
c224 150 429 360 561 571 240 385 314 788 232 1253 -1 6 32 28 73 49 104 52
228 64 243 23 5 -11 -1 -13 -26 -10 -82 13 -157 -49 -157 -130 0 -82 62 -139
152 -140 40 -1 52 4 82 33 20 19 41 50 47 68 13 40 28 41 86 7 54 -31 89 -27
99 13 6 23 2 32 -23 52 -17 13 -54 34 -84 46 -46 18 -56 26 -67 59 -19 58 -48
92 -92 110 -75 30 -195 14 -301 -40 -28 -14 -55 -22 -59 -17 -4 4 -16 33 -25
63 -167 517 -646 987 -1215 1190 -103 37 -98 27 -61 132 132 378 -79 824 -461
974 -136 53 -311 68 -451 38z m308 -199 c165 -43 310 -163 383 -315 112 -235
69 -493 -113 -675 -193 -193 -482 -229 -721 -90 -74 43 -184 160 -221 235 -84
173 -85 367 -3 535 72 148 226 273 383 311 74 18 221 17 292 -1z m605 -1132
c136 -50 346 -161 463 -244 252 -180 471 -448 584 -714 130 -305 151 -668 58
-987 -110 -379 -372 -711 -746 -947 l-94 -59 -3 -260 -2 -259 -180 -8 c-98 -4
-184 -4 -189 0 -7 4 -11 70 -11 186 0 98 -2 179 -3 179 -2 0 -66 -13 -143 -29
-208 -44 -321 -54 -538 -48 -198 5 -311 21 -503 71 l-93 24 0 -184 0 -184
-192 2 -193 3 0 230 c0 127 3 246 8 266 l7 35 -77 50 c-165 104 -338 260 -457
412 l-49 62 -278 0 c-194 0 -286 4 -304 12 -55 25 -55 28 -55 532 0 330 3 472
12 490 23 53 50 61 213 65 l150 3 31 127 c57 227 132 374 321 630 10 13 -5 39
-97 161 l-109 145 32 7 c66 14 176 -14 284 -72 41 -22 78 -40 83 -40 5 0 49
30 97 66 161 121 378 235 556 294 l69 22 41 -39 c23 -22 57 -52 75 -66 22 -18
29 -29 20 -31 -7 -3 -53 -18 -103 -34 -116 -39 -239 -93 -270 -120 -47 -41
-43 -108 8 -146 38 -28 79 -24 167 17 215 100 508 156 750 143 222 -11 413
-58 624 -151 85 -37 130 -52 147 -48 62 15 94 85 65 142 -21 40 -154 106 -331
162 -71 23 -132 44 -134 46 -2 1 9 13 25 25 16 12 49 42 74 65 52 49 46 50
190 -4z m1643 -1229 c18 -7 11 -37 -14 -60 -16 -14 -24 -15 -44 -6 -24 11 -35
49 -18 65 8 8 56 9 76 1z"/>
<path d="M1122 2663 c-67 -33 -104 -113 -84 -182 24 -78 81 -123 157 -123 137
0 214 160 128 263 -49 57 -134 75 -201 42z"/>
</g>
</svg>
