<svg width="24" height="18" viewBox="0 0 24 18" fill="none" xmlns="http://www.w3.org/2000/svg">
<g clip-path="url(#clip0_1483_414)">
<path d="M23.4699 2.9313C23.3335 2.39833 23.0663 1.9124 22.6951 1.52212C22.324 1.13185 21.8619 0.850924 21.355 0.707468C19.4884 0.17627 11.9879 0.17627 11.9879 0.17627C11.9879 0.17627 4.48729 0.17627 2.62071 0.707468C2.11385 0.850924 1.65172 1.13185 1.28057 1.52212C0.90941 1.9124 0.642248 2.39833 0.50582 2.9313C0.157288 4.93298 -0.0118455 6.96464 0.000644257 8.99956C-0.0118455 11.0345 0.157288 13.0661 0.50582 15.0678C0.642248 15.6008 0.90941 16.0867 1.28057 16.477C1.65172 16.8673 2.11385 17.1482 2.62071 17.2917C4.48729 17.8229 11.9879 17.8229 11.9879 17.8229C11.9879 17.8229 19.4884 17.8229 21.355 17.2917C21.8619 17.1482 22.324 16.8673 22.6951 16.477C23.0663 16.0867 23.3335 15.6008 23.4699 15.0678C23.8184 13.0661 23.9876 11.0345 23.9751 8.99956C23.9876 6.96464 23.8184 4.93298 23.4699 2.9313ZM9.59041 12.781V5.21815L15.8152 8.99956L9.59041 12.781Z" fill="#E42F08"/>
</g>
<defs>
<clipPath id="clip0_1483_414">
<rect width="24" height="17.6842" fill="white" transform="translate(0 0.157715)"/>
</clipPath>
</defs>
</svg>
