<svg width="112" height="99" viewBox="0 0 112 99" fill="none" xmlns="http://www.w3.org/2000/svg">
<path fill-rule="evenodd" clip-rule="evenodd" d="M0 38.7445C0 38.7445 20.1537 -13.5712 63.9372 3.38044C63.6692 3.37617 63.4006 3.37402 63.1315 3.37402C40.8636 3.37402 22.0883 18.0539 16.3001 38.0932C11.2873 38.6167 5.86343 38.8576 0 38.7445ZM71.6492 8.92787C68.2351 14.5309 53.7253 34.1851 16.3001 38.0932C15.1011 42.2445 14.4593 46.6259 14.4593 51.1543C14.4593 77.5427 36.2506 98.9346 63.1315 98.9346C90.0124 98.9346 111.804 77.5427 111.804 51.1543C111.804 31.7179 99.9816 14.992 83.0114 7.52829C84.2397 5.81232 85.3582 4.36942 85.9857 3.55992L85.9859 3.55967L86.1298 3.37395C87.9514 1.02099 84.5738 0.0911864 84.5738 0.0911864C82.6539 0.33803 80.5383 2.79992 78.6191 5.84381C73.9958 4.32156 69.0628 3.46211 63.9372 3.38044C66.6262 4.42155 69.4044 5.72393 72.2725 7.31575C71.8308 7.18179 71.5566 7.07425 71.5566 7.07425L71.272 7.58659C71.1848 8.13357 71.3435 8.57374 71.6492 8.92787ZM76.0715 10.376C73.94 14.5577 72.4485 18.4215 72.4485 18.4215C72.4485 18.4215 78.1601 22.8997 77.4011 19.1995C76.8875 16.6959 80.2309 11.4125 83.0114 7.52829C81.5824 6.89983 80.117 6.33703 78.6191 5.84381C78.3701 6.23868 78.1244 6.64334 77.8829 7.05423C76.4163 8.35398 73.5942 7.7166 72.2725 7.31575C72.3437 7.3553 72.415 7.39503 72.4864 7.43493C72.4864 7.43493 72.2264 7.98058 71.6492 8.92787C72.7936 10.2538 75.9985 10.3734 76.0715 10.376ZM78.0761 6.86267C78.0148 6.93075 77.9503 6.99453 77.8829 7.05423C77.2448 8.1399 76.6358 9.26906 76.0715 10.376C76.0724 10.376 76.0728 10.376 76.0728 10.376L78.0761 6.86267ZM78.0761 6.86267C78.3038 6.6101 78.4883 6.29837 78.6155 5.91675L78.0761 6.86267Z" fill="#F15A21"/>
</svg>
