<svg width="473" height="116" viewBox="0 0 473 116" fill="none" xmlns="http://www.w3.org/2000/svg">
<g clip-path="url(#clip0_32_5)">
<path d="M158.749 87.4771C150.817 87.4771 146.168 82.0121 146.168 75.5794C146.161 73.6503 146.559 71.7411 147.337 69.9758C148.115 68.2105 149.255 66.6285 150.684 65.3327L178.142 38.5582H158.199C156.629 38.5495 155.076 38.2317 153.629 37.6228C152.182 37.014 150.869 36.1261 149.765 35.0099C148.661 33.8936 147.788 32.5709 147.195 31.1171C146.602 29.6634 146.302 28.1072 146.311 26.5373C146.319 24.9674 146.637 23.4146 147.246 21.9675C147.855 20.5204 148.743 19.2075 149.859 18.1036C150.975 16.9996 152.298 16.1264 153.752 15.5337C155.205 14.941 156.762 14.6404 158.332 14.6491H192.355C200.135 14.6491 206.15 19.4309 206.15 26.8124C205.978 31.379 204.015 35.6941 200.685 38.8239L174.461 64.5167H197.231C198.773 64.4584 200.31 64.7083 201.754 65.2518C203.198 65.7952 204.518 66.6213 205.639 67.6816C206.759 68.7419 207.657 70.0151 208.279 71.4266C208.901 72.8382 209.235 74.3597 209.262 75.902C209.262 82.7332 204.063 87.3822 197.231 87.3822L158.749 87.4771Z" fill="#F15A21"/>
<path d="M290.458 69.4313C290.458 82.8281 272.963 89.1089 257.934 89.1089C234.575 89.1089 219.983 75.1809 219.983 51.4046C219.983 26.7365 235.562 13.2828 257.156 13.2828C279.927 13.2828 292.545 25.9964 292.545 43.6436C292.545 52.1257 288.162 55.8069 278.883 55.8069H243.038C244.272 63.0556 251.236 66.604 259.167 66.604C265.866 66.604 269.68 64.1562 273.38 62.1068C275.733 60.5382 278.468 59.6395 281.293 59.5072C286.359 59.4692 290.458 63.4351 290.458 69.4313ZM242.886 44.4406L270.211 43.8903C270.078 38.5582 265.296 33.5107 256.928 33.5107C250.002 33.5107 243.987 37.0591 242.886 44.4406Z" fill="#F15A21"/>
<path d="M377.897 69.4313C377.897 82.8281 360.402 89.1848 345.354 89.1848C321.976 89.1848 307.403 75.2568 307.403 51.4805C307.403 26.8124 322.963 13.2828 344.557 13.2828C367.328 13.2828 379.946 25.9964 379.946 43.6436C379.946 52.1257 375.563 55.8069 366.265 55.8069H330.477C331.711 63.0556 338.675 66.604 346.606 66.604C353.286 66.604 357.119 64.1562 360.8 62.1068C363.16 60.5384 365.901 59.6399 368.732 59.5072C373.817 59.4692 377.897 63.4351 377.897 69.4313ZM330.344 44.4406L357.669 43.8903C357.536 38.5582 352.755 33.5107 344.386 33.5107C337.441 33.5107 331.426 37.0591 330.344 44.4406Z" fill="#F15A21"/>
<path d="M398.486 104.005V40.8732L397.252 25.8446C396.303 17.799 401.901 13.4156 407.518 13.4156C412.698 13.4156 418.296 16.2809 418.903 23.6624L419.719 36.7745H420.953C423.419 18.6149 434.349 13.0172 446.778 13.0172C461.959 13.2828 472.471 24.2127 472.471 50.4368C472.471 78.179 458.524 88.7104 444.179 88.7104C433.116 88.7104 424.368 82.5624 422.452 65.9398H420.82C421.636 75.105 421.636 83.0178 421.636 88.7104V104.156C421.662 105.667 421.382 107.167 420.813 108.566C420.244 109.966 419.398 111.235 418.325 112.299C417.253 113.363 415.976 114.198 414.572 114.756C413.168 115.313 411.666 115.58 410.155 115.542C408.624 115.58 407.1 115.309 405.675 114.745C404.251 114.18 402.955 113.334 401.865 112.257C400.776 111.179 399.915 109.893 399.334 108.475C398.753 107.057 398.465 105.537 398.486 104.005ZM449.871 50.7215C449.871 40.3419 444.179 37.1919 435.924 37.1919C425.677 37.1919 421.313 41.4235 421.313 50.8543C421.313 59.3174 425.962 64.251 436.076 64.251C444.292 64.251 450.023 60.7216 449.89 50.7215H449.871Z" fill="#F15A21"/>
<path fill-rule="evenodd" clip-rule="evenodd" d="M0 44.7445C0 44.7445 20.1537 -7.57119 63.9372 9.38044C63.6692 9.37617 63.4006 9.37402 63.1315 9.37402C40.8636 9.37402 22.0883 24.0539 16.3001 44.0932C11.2873 44.6167 5.86343 44.8576 0 44.7445ZM71.6492 14.9279C68.2351 20.5309 53.7253 40.1851 16.3001 44.0932C15.1011 48.2445 14.4593 52.6259 14.4593 57.1543C14.4593 83.5427 36.2506 104.935 63.1315 104.935C90.0124 104.935 111.804 83.5427 111.804 57.1543C111.804 37.7179 99.9816 20.992 83.0114 13.5283C84.2397 11.8123 85.3582 10.3694 85.9857 9.55992L85.9859 9.55967L86.1298 9.37395C87.9514 7.02099 84.5738 6.09119 84.5738 6.09119C82.6539 6.33803 80.5383 8.79992 78.6191 11.8438C73.9958 10.3216 69.0628 9.46211 63.9372 9.38044C66.6262 10.4215 69.4044 11.7239 72.2725 13.3158C71.8308 13.1818 71.5566 13.0743 71.5566 13.0743L71.272 13.5866C71.1848 14.1336 71.3435 14.5737 71.6492 14.9279ZM76.0715 16.376C73.94 20.5577 72.4485 24.4215 72.4485 24.4215C72.4485 24.4215 78.1601 28.8997 77.4011 25.1995C76.8875 22.6959 80.2309 17.4125 83.0114 13.5283C81.5824 12.8998 80.117 12.337 78.6191 11.8438C78.3701 12.2387 78.1244 12.6433 77.8829 13.0542C76.4163 14.354 73.5942 13.7166 72.2725 13.3158C72.3437 13.3553 72.415 13.395 72.4864 13.4349C72.4864 13.4349 72.2264 13.9806 71.6492 14.9279C72.7936 16.2538 75.9985 16.3734 76.0715 16.376ZM78.0761 12.8627C78.0148 12.9308 77.9503 12.9945 77.8829 13.0542C77.2448 14.1399 76.6358 15.2691 76.0715 16.376C76.0724 16.376 76.0728 16.376 76.0728 16.376L78.0761 12.8627ZM78.0761 12.8627C78.3038 12.6101 78.4883 12.2984 78.6155 11.9167L78.0761 12.8627Z" fill="#F15A21"/>
</g>
<defs>
<clipPath id="clip0_32_5">
<rect width="472.433" height="115.485" fill="white"/>
</clipPath>
</defs>
</svg>
